HIERARCHY
ROOT hip
{
  OFFSET 0 0 0
  CHANNELS 6 Xposition Yposition Zposition Zrotation Yrotation Xrotation
  JOINT abdomen
  {
    OFFSET 0 20.6881 -0.73152
    CHANNELS 3 Zrotation Xrotation Yrotation
    JOINT chest
    {
      OFFSET 0 11.7043 -0.48768
      CHANNELS 3 Zrotation Xrotation Yrotation
      JOINT neck
      {
        OFFSET 0 22.1894 -2.19456
        CHANNELS 3 Zrotation Xrotation Yrotation
        JOINT head
        {
          OFFSET -0.24384 7.07133 1.2192
          CHANNELS 3 Zrotation Xrotation Yrotation
          JOINT leftEye
          {
            OFFSET 4.14528 8.04674 8.04672
            CHANNELS 3 Zrotation Xrotation Yrotation
            End Site
            {
              OFFSET 1 0 0
            }
          }
          JOINT rightEye
          {
            OFFSET -3.6576 8.04674 8.04672
            CHANNELS 3 Zrotation Xrotation Yrotation
            End Site
            {
              OFFSET 1 0 0
            }
          }
        }
      }
      JOINT rCollar
      {
        OFFSET -2.68224 19.2634 -4.8768
        CHANNELS 3 Zrotation Xrotation Yrotation
        JOINT rShldr
        {
          OFFSET -8.77824 -1.95073 1.46304
          CHANNELS 3 Zrotation Xrotation Yrotation
          JOINT rForeArm
          {
            OFFSET -28.1742 -1.7115 0.48768
            CHANNELS 3 Zrotation Xrotation Yrotation
            JOINT rHand
            {
              OFFSET -22.5879 0.773209 7.07136
              CHANNELS 3 Zrotation Xrotation Yrotation
              JOINT rThumb1
              {
                OFFSET -1.2192 -0.487915 3.41376
                CHANNELS 3 Zrotation Xrotation Yrotation
                JOINT rThumb2
                {
                  OFFSET -3.37035 -0.52449 3.41376
                  CHANNELS 3 Zrotation Xrotation Yrotation
                  End Site
                  {
                    OFFSET -1.78271 -1.18214 1.43049
                  }
                }
              }
              JOINT rIndex1
              {
                OFFSET -7.75947 0.938293 5.60832
                CHANNELS 3 Zrotation Xrotation Yrotation
                JOINT rIndex2
                {
                  OFFSET -2.54057 -0.884171 1.56538
                  CHANNELS 3 Zrotation Xrotation Yrotation
                  End Site
                  {
                    OFFSET -1.62519 -0.234802 1.16502
                  }
                }
              }
              JOINT rMid1
              {
                OFFSET -8.24714 1.18213 3.41376
                CHANNELS 3 Zrotation Xrotation Yrotation
                JOINT rMid2
                {
                  OFFSET -3.10165 -0.590103 1.0647
                  CHANNELS 3 Zrotation Xrotation Yrotation
                  End Site
                  {
                    OFFSET -2.48547 -0.328903 0.83742
                  }
                }
              }
              JOINT rRing1
              {
                OFFSET -8.82822 0.546677 1.51678
                CHANNELS 3 Zrotation Xrotation Yrotation
                JOINT rRing2
                {
                  OFFSET -2.60934 -0.819778 -0.0198488
                  CHANNELS 3 Zrotation Xrotation Yrotation
                  End Site
                  {
                    OFFSET -2.33842 -0.294052 0.168128
                  }
                }
              }
              JOINT rPinky1
              {
                OFFSET -8.27202 -0.0477905 -0.4584
                CHANNELS 3 Zrotation Xrotation Yrotation
                JOINT rPinky2
                {
                  OFFSET -1.82734 -0.647385 -0.700984
                  CHANNELS 3 Zrotation Xrotation Yrotation
                  End Site
                  {
                    OFFSET -1.69225 -0.51767 -0.607171
                  }
                }
              }
            }
          }
        }
      }
      JOINT lCollar
      {
        OFFSET 2.68224 19.2634 -4.8768
        CHANNELS 3 Zrotation Xrotation Yrotation
        JOINT lShldr
        {
          OFFSET 8.77824 -1.95073 1.46304
          CHANNELS 3 Zrotation Xrotation Yrotation
          JOINT lForeArm
          {
            OFFSET 28.1742 -1.7115 0.48768
            CHANNELS 3 Zrotation Xrotation Yrotation
            JOINT lHand
            {
              OFFSET 22.5879 0.773209 7.07136
              CHANNELS 3 Zrotation Xrotation Yrotation
              JOINT lThumb1
              {
                OFFSET 1.2192 -0.487915 3.41376
                CHANNELS 3 Zrotation Xrotation Yrotation
                JOINT lThumb2
                {
                  OFFSET 3.37035 -0.52449 3.41376
                  CHANNELS 3 Zrotation Xrotation Yrotation
                  End Site
                  {
                    OFFSET 1.78271 -1.18214 1.43049
                  }
                }
              }
              JOINT lIndex1
              {
                OFFSET 7.75947 0.938293 5.60832
                CHANNELS 3 Zrotation Xrotation Yrotation
                JOINT lIndex2
                {
                  OFFSET 2.54057 -0.884171 1.56538
                  CHANNELS 3 Zrotation Xrotation Yrotation
                  End Site
                  {
                    OFFSET 1.62519 -0.234802 1.16502
                  }
                }
              }
              JOINT lMid1
              {
                OFFSET 8.24714 1.18213 3.41376
                CHANNELS 3 Zrotation Xrotation Yrotation
                JOINT lMid2
                {
                  OFFSET 3.10165 -0.590103 1.0647
                  CHANNELS 3 Zrotation Xrotation Yrotation
                  End Site
                  {
                    OFFSET 2.48547 -0.328903 0.83742
                  }
                }
              }
              JOINT lRing1
              {
                OFFSET 8.82822 0.546677 1.51678
                CHANNELS 3 Zrotation Xrotation Yrotation
                JOINT lRing2
                {
                  OFFSET 2.60934 -0.819778 -0.0198488
                  CHANNELS 3 Zrotation Xrotation Yrotation
                  End Site
                  {
                    OFFSET 2.33842 -0.294052 0.168128
                  }
                }
              }
              JOINT lPinky1
              {
                OFFSET 8.27202 -0.0477905 -0.4584
                CHANNELS 3 Zrotation Xrotation Yrotation
                JOINT lPinky2
                {
                  OFFSET 1.82734 -0.647385 -0.700984
                  CHANNELS 3 Zrotation Xrotation Yrotation
                  End Site
                  {
                    OFFSET 1.69225 -0.51767 -0.607171
                  }
                }
              }
            }
          }
        }
      }
    }
  }
  JOINT rButtock
  {
    OFFSET -8.77824 4.35084 1.2192
    CHANNELS 3 Zrotation Xrotation Yrotation
    JOINT rThigh
    {
      OFFSET 0 -1.70687 -2.19456
      CHANNELS 3 Zrotation Xrotation Yrotation
      JOINT rShin
      {
        OFFSET 0 -36.8199 0.73152
        CHANNELS 3 Zrotation Xrotation Yrotation
        JOINT rFoot
        {
          OFFSET 0.73152 -45.1104 -5.12064
          CHANNELS 3 Zrotation Xrotation Yrotation
          End Site
          {
            OFFSET -1.1221 -3.69964 12.103
          }
        }
      }
    }
  }
  JOINT lButtock
  {
    OFFSET 8.77824 4.35084 1.2192
    CHANNELS 3 Zrotation Xrotation Yrotation
    JOINT lThigh
    {
      OFFSET 0 -1.70687 -2.19456
      CHANNELS 3 Zrotation Xrotation Yrotation
      JOINT lShin
      {
        OFFSET 0 -36.8199 0.73152
        CHANNELS 3 Zrotation Xrotation Yrotation
        JOINT lFoot
        {
          OFFSET -0.73152 -45.1104 -5.12064
          CHANNELS 3 Zrotation Xrotation Yrotation
          End Site
          {
            OFFSET 1.1221 -3.69964 12.103
          }
        }
      }
    }
  }
}
MOTION
Frames:	7
Frame Time:	0.00833333
28.2712 124.556 -125.203 2.6497 -5.5684 31.0777 -7.5856 -21.303 -5.71118 6.01926 -8.87198 -0.774794 -6.32756 3.84224 0.327636 -10.0119 39.7322 5.09131 -0.0 0.0 0.0 -0.0 0.0 0.0 -2.15883e-13 -5.36222e-13 1.57487e-13 78.2467 41.6235 -19.709 -22.2173 -16.0871 44.3807 -3.05979e-05 0.157948 0.0221982 1.9158e-09 -2.89455e-09 -1.90239e-10 3.31261e-09 -5.00671e-09 -3.25612e-10 1.91581e-09 -2.89455e-09 -1.90258e-10 7.73091 5.47488 0.417314 1.9158e-09 -2.89455e-09 -1.90245e-10 2.90554 0.965183 0.102902 1.91582e-09 -2.89455e-09 -1.9025e-10 10.2786 0.731801 0.0259123 1.9158e-09 -2.89455e-09 -1.90251e-10 2.22167 -0.733487 -0.20892 -2.16041e-13 -5.36223e-13 1.57338e-13 -93.0307 10.7062 23.356 14.2134 -7.12786 -25.9843 0.0772832 7.9062 -1.11832 2.51301e-09 -2.71998e-10 -2.05372e-10 4.34095e-09 -4.70057e-10 -3.73819e-10 2.513e-09 -2.72e-10 -2.05362e-10 -7.73091 5.47488 -0.417314 2.51301e-09 -2.71997e-10 -2.05365e-10 -2.90554 0.965183 -0.102902 2.513e-09 -2.71995e-10 -2.05372e-10 -10.2786 0.731801 -0.0259123 2.51301e-09 -2.71991e-10 -2.05378e-10 -2.22167 -0.733487 0.20892 -2.03217e-16 0.0 -3.88251e-19 1.57058 -48.194 -2.13906 -0.251123 40.8987 1.34604 -15.9772 -19.5055 -31.5047 2.03217e-16 0.0 3.88251e-19 -16.5842 -57.7502 -10.6614 0.257092 36.7861 -0.632417 3.45972 -3.55186 19.9255
28.348 124.495 -124.861 2.6906 -5.2744 30.8995 -7.65124 -21.2458 -5.69045 5.91259 -8.87871 -0.772177 -6.42151 3.91139 0.22025 -9.79428 39.8713 4.83577 -0.0 0.0 0.0 -0.0 0.0 0.0 -2.51714e-13 -6.84654e-13 2.02836e-13 78.3445 41.8892 -19.6738 -22.3982 -16.3652 44.8866 -2.73719e-05 0.38212 0.0537041 1.97634e-09 -2.82859e-09 -9.8287e-10 3.41735e-09 -4.89395e-09 -1.69324e-09 1.97634e-09 -2.82859e-09 -9.8289e-10 7.73091 5.47488 0.417314 1.97634e-09 -2.82859e-09 -9.82876e-10 2.90554 0.965183 0.102902 1.97635e-09 -2.82859e-09 -9.8288e-10 10.2786 0.731801 0.0259123 1.97634e-09 -2.82859e-09 -9.82882e-10 2.22167 -0.733487 -0.20892 -2.51874e-13 -6.84656e-13 2.02682e-13 -93.0413 10.9485 23.3853 14.2658 -7.17105 -26.09 0.0798432 8.03453 -1.13671 2.97749e-09 -1.01908e-09 -9.80739e-10 5.13797e-09 -1.76438e-09 -1.71905e-09 2.97749e-09 -1.01909e-09 -9.80728e-10 -7.73091 5.47488 -0.417314 2.9775e-09 -1.01908e-09 -9.80733e-10 -2.90554 0.965183 -0.102902 2.97749e-09 -1.01908e-09 -9.8074e-10 -10.2786 0.731801 -0.0259123 2.97749e-09 -1.01908e-09 -9.80746e-10 -2.22167 -0.733487 0.20892 -2.03217e-16 0.0 -3.88251e-19 1.08654 -48.2225 -2.53205 -0.269393 41.6581 1.3477 -15.4561 -19.1107 -30.8883 2.03217e-16 0.0 3.88251e-19 -16.9427 -57.4249 -11.0437 0.25908 36.9194 -0.632603 3.53988 -3.72959 20.0114
28.4256 124.418 -124.528 2.7128 -4.9699 30.7438 -7.71338 -21.1983 -5.68575 5.79424 -8.87004 -0.776015 -6.53034 3.97363 0.0958303 -9.52062 40.0493 4.53083 -0.0 0.0 0.0 -0.0 0.0 0.0 -2.73711e-13 -7.98598e-13 2.59141e-13 78.408 42.0976 -19.5867 -22.5551 -16.6122 45.3247 -0.000431292 0.688477 0.0967654 1.85732e-09 -2.32443e-09 -2.10233e-09 3.21136e-09 -4.02365e-09 -3.62578e-09 1.85732e-09 -2.32444e-09 -2.10234e-09 7.73091 5.47488 0.417314 1.85732e-09 -2.32443e-09 -2.10233e-09 2.90554 0.965183 0.102902 1.85733e-09 -2.32443e-09 -2.10233e-09 10.2786 0.731801 0.0259123 1.85731e-09 -2.32443e-09 -2.10233e-09 2.22167 -0.733487 -0.20892 -2.73847e-13 -7.98601e-13 2.58967e-13 -93.0366 11.2076 23.4072 14.3327 -7.22626 -26.2254 0.0822643 8.15498 -1.15399 3.24923e-09 -2.08423e-09 -1.83269e-09 5.60106e-09 -3.6098e-09 -3.19549e-09 3.24923e-09 -2.08423e-09 -1.83268e-09 -7.73091 5.47488 -0.417314 3.24924e-09 -2.08423e-09 -1.83269e-09 -2.90554 0.965183 -0.102902 3.24922e-09 -2.08423e-09 -1.83269e-09 -10.2786 0.731801 -0.0259123 3.24923e-09 -2.08423e-09 -1.8327e-09 -2.22167 -0.733487 0.20892 -2.03217e-16 0.0 -3.88251e-19 0.586529 -48.2587 -2.85713 -0.289308 42.4622 1.34713 -14.8583 -18.6295 -30.1918 2.03217e-16 0.0 3.88251e-19 -17.33 -57.0866 -11.4697 0.261214 37.0601 -0.632611 3.63237 -3.92954 20.1128
28.5096 124.39 -124.131 2.7435 -4.8373 30.6489 -7.76718 -21.1482 -5.68382 5.66771 -8.85874 -0.781823 -6.61994 4.02854 -0.0234455 -9.26817 40.2259 4.23993 -0.0 0.0 0.0 -0.0 0.0 0.0 -2.74848e-13 -8.53412e-13 3.01604e-13 78.4594 42.2574 -19.4904 -22.7017 -16.8477 45.7338 -0.00127014 1.03497 0.145474 1.60327e-09 -1.62028e-09 -3.10147e-09 2.77186e-09 -2.80725e-09 -5.35102e-09 1.60328e-09 -1.62028e-09 -3.10149e-09 7.73091 5.47488 0.417314 1.60327e-09 -1.62028e-09 -3.10147e-09 2.90554 0.965183 0.102902 1.60328e-09 -1.62028e-09 -3.10148e-09 10.2786 0.731801 0.0259123 1.60327e-09 -1.62028e-09 -3.10147e-09 2.22167 -0.733487 -0.20892 -2.74953e-13 -8.53418e-13 3.01411e-13 -93.0047 11.4713 23.3937 14.394 -7.27692 -26.3499 0.0842311 8.25142 -1.16782 3.25017e-09 -3.04367e-09 -2.52133e-09 5.59731e-09 -5.2721e-09 -4.38725e-09 3.25017e-09 -3.04367e-09 -2.52132e-09 -7.73091 5.47488 -0.417314 3.25017e-09 -3.04367e-09 -2.52133e-09 -2.90554 0.965183 -0.102902 3.25016e-09 -3.04367e-09 -2.52133e-09 -10.2786 0.731801 -0.0259123 3.25017e-09 -3.04367e-09 -2.52134e-09 -2.22167 -0.733487 0.20892 -2.03217e-16 0.0 -3.88251e-19 0.0343271 -48.3791 -3.27291 -0.312856 43.3636 1.34704 -14.193 -18.0361 -29.4362 2.03217e-16 0.0 3.88251e-19 -17.6981 -56.7602 -11.8724 0.263461 37.211 -0.632596 3.72882 -4.14369 20.2053
28.5928 124.287 -123.872 2.8267 -4.4702 30.5269 -7.80786 -21.0834 -5.67139 5.53644 -8.85758 -0.785115 -6.6563 4.07569 -0.115392 -9.11611 40.3611 4.0278 -0.0 0.0 0.0 -0.0 0.0 0.0 -2.481e-13 -8.24456e-13 3.05433e-13 78.5217 42.3776 -19.4285 -22.8501 -17.0894 46.1537 -0.00233467 1.37954 0.19392 1.25874e-09 -9.54325e-10 -3.53318e-09 2.17605e-09 -1.65619e-09 -6.09678e-09 1.25875e-09 -9.54331e-10 -3.5332e-09 7.73091 5.47488 0.417314 1.25874e-09 -9.54325e-10 -3.53318e-09 2.90554 0.965183 0.102902 1.25874e-09 -9.54325e-10 -3.53318e-09 10.2786 0.731801 0.0259123 1.25874e-09 -9.54324e-10 -3.53318e-09 2.22167 -0.733487 -0.20892 -2.48182e-13 -8.24463e-13 3.05234e-13 -92.9331 11.7271 23.3168 14.4299 -7.30662 -26.4232 0.0854032 8.30767 -1.1759 2.90225e-09 -3.47364e-09 -2.80674e-09 4.99384e-09 -6.01705e-09 -4.87843e-09 2.90225e-09 -3.47364e-09 -2.80673e-09 -7.73091 5.47488 -0.417314 2.90225e-09 -3.47364e-09 -2.80674e-09 -2.90554 0.965183 -0.102902 2.90224e-09 -3.47364e-09 -2.80674e-09 -10.2786 0.731801 -0.0259123 2.90225e-09 -3.47364e-09 -2.80675e-09 -2.22167 -0.733487 0.20892 -2.03217e-16 0.0 -3.88251e-19 -0.612504 -48.6577 -3.94262 -0.342268 44.4151 1.35041 -13.4703 -17.3046 -28.6438 2.03217e-16 0.0 3.88251e-19 -18.0028 -56.471 -12.1877 0.265787 37.3751 -0.632713 3.82042 -4.3642 20.2646
28.6671 124.195 -123.605 2.8193 -4.0668 30.3885 -7.81635 -20.9886 -5.64706 5.39679 -8.87621 -0.786802 -6.6111 4.11669 -0.166946 -9.12594 40.4337 3.93645 -0.0 0.0 0.0 -0.0 0.0 0.0 -1.72784e-13 -6.86273e-13 2.48336e-13 78.605 42.4585 -19.4246 -23.0113 -17.356 46.615 -0.00355777 1.74154 0.244826 7.60502e-10 -2.40127e-10 -3.21983e-09 1.31451e-09 -4.20592e-10 -5.55652e-09 7.60508e-10 -2.40133e-10 -3.21984e-09 7.73091 5.47488 0.417314 7.605e-10 -2.40127e-10 -3.21983e-09 2.90554 0.965183 0.102902 7.60504e-10 -2.40127e-10 -3.21983e-09 10.2786 0.731801 0.0259123 7.60499e-10 -2.40126e-10 -3.21982e-09 2.22167 -0.733487 -0.20892 -1.72855e-13 -6.86279e-13 2.48155e-13 -92.8091 11.9727 23.1555 14.4267 -7.30389 -26.4166 0.0855673 8.31472 -1.17692 1.98183e-09 -3.16917e-09 -2.62612e-09 3.40483e-09 -5.48959e-09 -4.55838e-09 1.98182e-09 -3.16917e-09 -2.62611e-09 -7.73091 5.47488 -0.417314 1.98183e-09 -3.16917e-09 -2.62612e-09 -2.90554 0.965183 -0.102902 1.98182e-09 -3.16917e-09 -2.62612e-09 -10.2786 0.731801 -0.0259123 1.98183e-09 -3.16917e-09 -2.62613e-09 -2.22167 -0.733487 0.20892 -2.03217e-16 0.0 -3.88251e-19 -1.40586 -49.0872 -4.99548 -0.377482 45.6217 1.35695 -12.6819 -16.4357 -27.7817 2.03217e-16 0.0 3.88251e-19 -18.2121 -56.2176 -12.3862 0.268124 37.5468 -0.632958 3.90439 -4.59591 20.2714
28.7457 124.149 -123.305 2.7101 -3.7237 30.2744 -7.80122 -20.8743 -5.61723 5.24842 -8.90573 -0.788574 -6.50905 4.15119 -0.192311 -9.2434 40.4689 3.92403 -0.0 0.0 0.0 -0.0 0.0 0.0 -5.89156e-14 -4.583e-13 1.48765e-13 78.6961 42.496 -19.4519 -23.1755 -17.6325 47.0905 -0.00529007 2.13321 0.29993 1.09837e-10 5.99369e-10 -2.41934e-09 1.89402e-10 1.03245e-09 -4.1756e-09 1.09841e-10 5.99366e-10 -2.41935e-09 7.73091 5.47488 0.417314 1.09834e-10 5.9937e-10 -2.41934e-09 2.90554 0.965183 0.102902 1.09839e-10 5.9937e-10 -2.41934e-09 10.2786 0.731801 0.0259123 1.09834e-10 5.99371e-10 -2.41933e-09 2.22167 -0.733487 -0.20892 -5.89799e-14 -4.58303e-13 1.48616e-13 -92.641 12.2148 22.9291 14.3978 -7.27991 -26.3578 0.0849113 8.28276 -1.17233 5.98144e-10 -2.38692e-09 -2.10703e-09 1.01794e-09 -4.1344e-09 -3.64883e-09 5.98141e-10 -2.38692e-09 -2.10702e-09 -7.73091 5.47488 -0.417314 5.98147e-10 -2.38692e-09 -2.10703e-09 -2.90554 0.965183 -0.102902 5.98137e-10 -2.38692e-09 -2.10703e-09 -10.2786 0.731801 -0.0259123 5.98145e-10 -2.38692e-09 -2.10703e-09 -2.22167 -0.733487 0.20892 -2.03217e-16 0.0 -3.88251e-19 -2.33766 -49.626 -6.33704 -0.417921 46.9583 1.36605 -11.8412 -15.4333 -26.8593 2.03217e-16 0.0 3.88251e-19 -18.3606 -55.9898 -12.5098 0.270512 37.7266 -0.633266 3.9849 -4.84094 20.2428
